<svg width="100" height="100" viewBox="0 0 100 100" fill="none" xmlns="http://www.w3.org/2000/svg">
<g clip-path="url(#clip0_1_9)">
<path d="M100 100H0V0H100V100ZM49.6484 18C32.1314 18.0001 18 32.2885 18 50C18 67.7115 32.1314 81.9999 49.6484 82C60.8359 82 70.1834 76.0463 74.8203 69.3486L70.9199 65.8516C67.5342 70.912 59.7318 76.7158 49.6484 76.7158C35.0018 76.7157 23.2256 64.8092 23.2256 50C23.2256 35.1908 35.0018 23.2843 49.6484 23.2842C64.2215 23.2842 76.0713 35.1907 76.0713 50V50.0742C73.4217 47.7674 69.4473 45.3863 64.3691 42.9307V47.2461C70.3307 52.4553 74.8203 57.9625 77.6172 63.6182H79.752C82.5488 57.9625 86.9648 52.4553 93 47.2461V42.9307C87.848 45.3865 83.8729 47.7673 81.2969 50.0742V50C81.2969 32.2884 67.1656 18 49.6484 18Z" fill="white"/>
</g>
<defs>
<clipPath id="clip0_1_9">
<rect width="100" height="100" fill="white"/>
</clipPath>
</defs>
</svg>
